# xmcd
#
# Track frame offsets:
#	150
#	20486
#	40772
#	47413
#	62841
#	75713
#	100183
#	114073
#	132814
#	144546
#	155239
#	175135
#	193381
#	204868
#	217679
#	231647
#	250483
#	275556
#
# Disc length: 3878 seconds
#
# Revision: 1
# Processed by: cddbd v1.4PL0 Copyright (c) Steve Scherf et al.
# Submitted via: audiograbber 1.81.03
#
DISCID=fe0f2412
DTITLE=Various Artist - Cash from Chaos - A Tribute to the Legendary Man in Black
DYEAR=1900
DGENRE=Country
TTITLE0=nine inch elvis - orange blossom special
TTITLE1=crosseyed - let the train blow the whistle
TTITLE2=section one - wanted man
TTITLE3=bagman - ring of fire
TTITLE4=the boxcar tramps - understand your man
TTITLE5=chris connely - don't make me go
TTITLE6=not breathing - ghost rider in the sky
TTITLE7=jeffrey venturo - i walk the line
TTITLE8=kill switch...click - flosom prison blues
TTITLE9=the staggers - cry cry cry
TTITLE10=tub ring - one piece at a time
TTITLE11=chris livesay - jackson
TTITLE12=the western trio - thanks alot
TTITLE13=hyponopaedia - luther played the boogie
TTITLE14=weird feeling numbe three - man in black
TTITLE15=texylvania - give my love to rose
TTITLE16=jared louche - delia's gone
TTITLE17=remora - rock islaand line
EXTD=
EXTT0=
EXTT1=
EXTT2=
EXTT3=
EXTT4=
EXTT5=
EXTT6=
EXTT7=
EXTT8=
EXTT9=
EXTT10=
EXTT11=
EXTT12=
EXTT13=
EXTT14=
EXTT15=
EXTT16=
EXTT17=
PLAYORDER=
